<?xml version="1.0" encoding="utf-8"?>
<!-- Generator: Adobe Illustrator 22.0.0, SVG Export Plug-In . SVG Version: 6.00 Build 0)  -->
<svg version="1.1" id="Layer_1" xmlns="http://www.w3.org/2000/svg" xmlns:xlink="http://www.w3.org/1999/xlink" x="0px" y="0px"
	 viewBox="0 0 100 99.6" style="enable-background:new 0 0 100 99.6;" xml:space="preserve">
<style type="text/css">
	.st0{fill:#FFFFFF;}
</style>
<path class="st0" d="M50,64.5c-7,0-12.9-5-14.2-11.7H0.1C1.6,79.1,23.4,99.9,50,99.9c26.6,0,48.4-20.9,49.9-47.1H64.2
	C62.9,59.4,57,64.5,50,64.5z"/>
<path class="st0" d="M50,35.5c7,0,12.9,5,14.2,11.7h35.7C98.4,20.9,76.6,0.1,50,0.1C23.4,0.1,1.6,20.9,0.1,47.2h35.6
	C37.1,40.6,43,35.5,50,35.5z"/>
<circle class="st0" cx="50" cy="50" r="10.3"/>
</svg>
